<?xml version="1.0" encoding="utf-8"?>
<!-- Generator: Adobe Illustrator 15.1.0, SVG Export Plug-In . SVG Version: 6.00 Build 0)  -->
<!DOCTYPE svg PUBLIC "-//W3C//DTD SVG 1.1//EN" "http://www.w3.org/Graphics/SVG/1.1/DTD/svg11.dtd">
<svg version="1.1" id="Layer_1" xmlns="http://www.w3.org/2000/svg" xmlns:xlink="http://www.w3.org/1999/xlink" x="0px" y="0px"
	 width="296.113px" height="33px" viewBox="0 0 296.113 33" enable-background="new 0 0 296.113 33" xml:space="preserve">
<g>
	<g>
		<path fill="#004F39" d="M26.729,2.271c0,0-1.715,3.679-2.585,5.505c-4.267-1.963-9.86-2.242-14.559,0.542
			c-3.135,1.916-5.661,5.322-5.923,8.979c-0.085,2.435,0.973,5.104,0.625,7.542c-0.088,1.305-0.389,2.609-0.999,3.738
			C2.504,29.884,1.565,31.017,0,31.106c0.349-0.436,2.768-1.629,1.817-7.109c-0.378-2.172-3.364-7.559-0.479-14.312
			C3.974,3.518,15.372-3.787,26.729,2.271L26.729,2.271z"/>
		<path fill="#004F39" d="M13.666,13.083c1.479-0.531,3.13-0.541,4.7-0.196c2.958,0.525,5.175,2.312,6.254,4.961
			c1.129,2.776,1.942,5.016,3.882,7.389c0.054,0.066-3.032-0.455-3.02-0.54c0.755-5.499-4.445-5.725-5.877-3.666
			c1.08,1.186,2.93,1.793,4.368,1.565C23.668,28.056,25.189,33.012,25.104,33c-1.24-0.171-6.914-3.51-8.572-4.959
			c-2.439,0.435-4.349,1.335-7.171,1.725c-0.087,0.012,0.518-2.083,0.432-3.126c0-2.874-2.202-5.566-0.643-9.096
			C10.082,15.429,11.489,13.866,13.666,13.083L13.666,13.083z"/>
	</g>
	<path fill="#004F39" d="M15.71,11.428c0.164,0.002,0.417,0.04,0.419,0.021c0.048-0.188,0.203-1.549,1.362-2.545
		C18.783,7.8,20.479,7.911,20.463,7.9c-1.691-0.516-3.432-0.554-4.638-0.448L15.71,11.428L15.71,11.428z"/>
	<path fill="#004F39" d="M4.955,16.382c-0.256,1.641-0.275,3.156-0.137,3.963c0.003,0.014,0.242-1.387,1.037-2.174
		c0.694-0.684,1.573-0.816,1.889-0.807c0-0.003,0.156-0.534,0.135-0.535L4.955,16.382L4.955,16.382z"/>
	<path fill="#004F39" d="M8.229,16.078c0.086-0.217,0.187-0.408,0.314-0.657l-3.002-1.167c-0.188,0.376-0.328,0.935-0.398,1.241
		L8.229,16.078L8.229,16.078z"/>
	<path fill="#004F39" d="M8.954,14.934c0.008-0.009,0.48-0.615,0.488-0.607l-2.753-2.072c-0.284,0.366-0.518,0.762-0.707,1.183
		L8.954,14.934L8.954,14.934z"/>
	<path fill="#004F39" d="M9.978,13.806c0.014-0.015,0.611-0.553,0.611-0.553L8.203,10.54c-0.536,0.466-0.7,0.678-1.026,1.075
		L9.978,13.806L9.978,13.806z"/>
	<path fill="#004F39" d="M11.215,12.866c0.005,0.033,0.687-0.381,0.7-0.411l-1.77-3.225c-0.678,0.326-1.11,0.677-1.309,0.816
		L11.215,12.866L11.215,12.866z"/>
	<path fill="#004F39" d="M12.53,12.153c0.844-0.287,0.843-0.297,0.843-0.282l-1.008-3.623c-0.558,0.165-1.316,0.489-1.495,0.606
		L12.53,12.153L12.53,12.153z"/>
	<path fill="#004F39" d="M14.026,11.66c0.029,0.017,0.763-0.163,0.771-0.163l0.092-3.928c-0.03,0.03-0.909,0.166-1.66,0.375
		L14.026,11.66L14.026,11.66z"/>
</g>
<g>
	<path fill="#004F39" d="M36.602,13.586h2.811l3.113,5.011l3.116-5.011h2.81v11.849h-2.59V17.7l-3.336,5.06h-0.067l-3.301-5.011
		v7.686h-2.556V13.586z"/>
	<path fill="#004F39" d="M51.413,13.586h2.606v11.849h-2.606V13.586z"/>
	<path fill="#004F39" d="M56.456,19.544V19.51c0-3.368,2.539-6.128,6.178-6.128c2.238,0,3.575,0.745,4.674,1.829l-1.66,1.912
		c-0.913-0.827-1.844-1.336-3.031-1.336c-1.998,0-3.434,1.659-3.434,3.69v0.034c0,2.032,1.403,3.726,3.434,3.726
		c1.354,0,2.185-0.54,3.116-1.389l1.659,1.676c-1.218,1.304-2.572,2.117-4.858,2.117C59.046,25.64,56.456,22.948,56.456,19.544z"/>
	<path fill="#004F39" d="M69.472,13.586h2.607v4.689h4.809v-4.689h2.607v11.849h-2.607v-4.754h-4.809v4.754h-2.607V13.586z"/>
	<path fill="#004F39" d="M82.453,13.586h2.608v11.849h-2.608V13.586z"/>
	<path fill="#004F39" d="M87.497,19.544V19.51c0-3.368,2.625-6.128,6.215-6.128c2.132,0,3.418,0.576,4.656,1.627l-1.643,1.98
		c-0.916-0.763-1.727-1.204-3.099-1.204c-1.895,0-3.404,1.676-3.404,3.69v0.034c0,2.169,1.491,3.76,3.589,3.76
		c0.95,0,1.795-0.236,2.456-0.711v-1.694h-2.624v-2.25h5.146v5.145c-1.219,1.033-2.896,1.881-5.062,1.881
		C90.038,25.64,87.497,23.05,87.497,19.544z"/>
	<path fill="#004F39" d="M105.355,13.5h2.404l5.08,11.934h-2.727l-1.084-2.657h-5.011l-1.084,2.657h-2.658L105.355,13.5z
		 M108.099,20.476l-1.575-3.842l-1.576,3.842H108.099z"/>
	<path fill="#004F39" d="M114.663,13.586h2.405l5.554,7.296v-7.296h2.574v11.849h-2.219l-5.738-7.531v7.531h-2.575V13.586z"/>
	<path fill="#004F39" d="M132.301,23.71l1.54-1.846c1.067,0.88,2.186,1.439,3.54,1.439c1.064,0,1.708-0.424,1.708-1.118v-0.034
		c0-0.66-0.405-0.999-2.386-1.506c-2.387-0.609-3.93-1.27-3.93-3.622v-0.034c0-2.151,1.727-3.575,4.149-3.575
		c1.728,0,3.199,0.543,4.402,1.509l-1.354,1.963c-1.05-0.729-2.083-1.168-3.082-1.168c-0.999,0-1.522,0.456-1.522,1.032v0.033
		c0,0.779,0.507,1.033,2.555,1.56c2.404,0.626,3.759,1.487,3.759,3.554v0.035c0,2.354-1.795,3.673-4.351,3.673
		C135.534,25.605,133.724,24.979,132.301,23.71z"/>
	<path fill="#004F39" d="M146.453,15.99h-3.608v-2.404h9.819v2.404h-3.604v9.445h-2.607V15.99z"/>
	<path fill="#004F39" d="M157.2,13.5h2.402l5.079,11.934h-2.726l-1.082-2.657h-5.011l-1.085,2.657h-2.657L157.2,13.5z
		 M159.94,20.476l-1.573-3.842l-1.573,3.842H159.94z"/>
	<path fill="#004F39" d="M167.745,15.99h-3.605v-2.404h9.818v2.404h-3.607v9.445h-2.605V15.99z"/>
	<path fill="#004F39" d="M175.954,13.586h8.938v2.319h-6.349v2.405h5.586v2.319h-5.586v2.487h6.434v2.318h-9.023V13.586z"/>
	<path fill="#004F39" d="M192.522,20.509v-6.923h0.882v6.838c0,2.794,1.507,4.402,4.013,4.402c2.403,0,3.944-1.454,3.944-4.317
		v-6.923h0.88v6.821c0,3.402-1.981,5.216-4.858,5.216C194.537,25.623,192.522,23.827,192.522,20.509z"/>
	<path fill="#004F39" d="M205.572,13.586h0.831l8.178,10.31v-10.31h0.846v11.849h-0.66l-8.347-10.529v10.529h-0.848V13.586z"/>
	<path fill="#004F39" d="M219.065,13.586h0.877v11.849h-0.877V13.586z"/>
	<path fill="#004F39" d="M222.567,13.586h0.98l4.641,10.901l4.655-10.901h0.93l-5.213,11.935h-0.78L222.567,13.586z"/>
	<path fill="#004F39" d="M236.276,13.586h8.433v0.812h-7.553v4.656h6.79v0.812h-6.79v4.758h7.635v0.811h-8.515V13.586z"/>
	<path fill="#004F39" d="M247.62,13.586h4.974c1.458,0,2.627,0.457,3.338,1.167c0.556,0.56,0.896,1.354,0.896,2.203v0.034
		c0,1.98-1.474,3.113-3.472,3.386l3.909,5.06h-1.114l-3.776-4.908h-3.88v4.908h-0.875V13.586z M252.491,19.73
		c1.984,0,3.456-0.999,3.456-2.707v-0.034c0-1.593-1.254-2.592-3.402-2.592h-4.05v5.333H252.491z"/>
	<path fill="#004F39" d="M259.093,23.71l0.578-0.66c1.3,1.201,2.504,1.76,4.248,1.76c1.778,0,2.996-1,2.996-2.354v-0.034
		c0-1.253-0.663-1.981-3.353-2.522c-2.846-0.574-3.994-1.538-3.994-3.334V16.53c0-1.761,1.607-3.116,3.81-3.116
		c1.726,0,2.86,0.476,4.062,1.44l-0.559,0.694c-1.117-0.964-2.238-1.338-3.537-1.338c-1.745,0-2.898,0.999-2.898,2.234v0.034
		c0,1.253,0.645,2.016,3.453,2.591c2.742,0.56,3.895,1.542,3.895,3.269v0.034c0,1.913-1.643,3.232-3.929,3.232
		C261.97,25.605,260.513,24.979,259.093,23.71z"/>
	<path fill="#004F39" d="M270.806,13.586h0.881v11.849h-0.881V13.586z"/>
	<path fill="#004F39" d="M278.608,14.397h-4.131v-0.812h9.141v0.812h-4.127v11.037h-0.883V14.397z"/>
	<path fill="#004F39" d="M290.154,20.746l-5.083-7.16h1.102l4.438,6.366l4.449-6.366h1.054l-5.083,7.144v4.705h-0.876V20.746z"/>
</g>
</svg>
